<svg width="180" height="45" viewBox="0 0 180 45" fill="none" xmlns="http://www.w3.org/2000/svg">
  <path d="M20 8H8C6.89543 8 6 8.89543 6 10V30C6 31.1046 6.89543 32 8 32H20C21.1046 32 22 31.1046 22 30V10C22 8.89543 21.1046 8 20 8Z" fill="#1E40AF"/>
  <path d="M34 8H22C20.8954 8 20 8.89543 20 10V30C20 31.1046 20.8954 32 22 32H34C35.1046 32 36 31.1046 36 30V10C36 8.89543 35.1046 8 34 8Z" fill="#1E40AF" fill-opacity="0.7"/>
  <text x="45" y="24" font-family="Outfit, sans-serif" font-weight="700" font-size="20" fill="#0F172A">Brevity</text>
</svg>
